<svg width="32" height="24" viewBox="0 0 32 24" xmlns="http://www.w3.org/2000/svg"><g fill="#FFF" fill-rule="evenodd"><path d="M13.675 10.14h-.104c-.068.207-.198.407-.39.597-.19.19-.528.408-1.013.65-.658.312-1.317.615-1.976.91-.657.295-1.247.667-1.767 1.118-.52.45-.944 1.005-1.273 1.664-.33.658-.494 1.507-.494 2.547 0 .416.026.9.078 1.456.052.554.19 1.092.416 1.612.225.52.563.96 1.013 1.325.45.364 1.075.546 1.872.546.45 0 .893-.104 1.326-.312.435-.208.824-.528 1.17-.96.348-.435.625-1.007.833-1.717.208-.71.312-1.57.312-2.574V10.14zM24.178 22.2c-.485.728-1.187 1.162-2.106 1.3-.918.14-1.776.208-2.573.208-1.77 0-3.078-.312-3.927-.936-.85-.624-1.378-1.49-1.586-2.6h-.104c-.555 1.387-1.317 2.323-2.288 2.808-.97.486-2.374.728-4.212.728-.83 0-1.68-.086-2.547-.26-.867-.173-1.664-.45-2.392-.832-.728-.38-1.317-.91-1.768-1.585-.45-.676-.676-1.5-.676-2.47 0-1.006.2-1.846.598-2.522.4-.675.92-1.247 1.56-1.715.64-.468 1.37-.85 2.184-1.144.814-.294 1.655-.58 2.522-.857 1.42-.416 2.573-.77 3.457-1.066.885-.294 1.57-.606 2.055-.936.485-.328.823-.7 1.014-1.117.19-.416.285-.953.285-1.612V4.42c0-.936-.225-1.786-.676-2.548-.452-.763-1.3-1.144-2.55-1.144-.796 0-1.49.182-2.08.546-.588.364-.883 1.03-.883 2.002 0 .104.018.286.052.546.034.26.07.546.103.858.035.312.07.606.104.884.035.277.052.468.052.572 0 .52-.122.927-.365 1.22-.242.296-.528.513-.857.65-.33.14-.676.218-1.04.235-.364.02-.668.027-.91.027-.347 0-.702-.026-1.066-.078-.364-.053-.685-.174-.962-.365-.277-.19-.51-.46-.702-.805-.19-.347-.286-.815-.286-1.404 0-.902.25-1.708.754-2.418.502-.71 1.17-1.3 2.002-1.768C5.2.962 6.144.607 7.2.364 8.26.12 9.36 0 10.504 0c1.318 0 2.557.104 3.718.312 1.162.208 2.168.59 3.017 1.144.85.555 1.525 1.308 2.028 2.262.502.953.754 2.158.754 3.613v12.897c0 .658.094 1.24.285 1.74.19.504.667.755 1.43.755.45 0 .823-.086 1.117-.26.295-.173.58-.416.858-.728l.468.468z"/><circle cx="29.793" cy="22.345" r="1.655"/></g></svg>
