<svg width="172" height="26" viewBox="0 0 172 26" xmlns="http://www.w3.org/2000/svg"><title>AMP by Example Logo</title><g fill="#000" fill-rule="evenodd"><path d="M40.047 14.824h2.994L42.033 11.8l-.23-.679c-.087-.26-.174-.542-.26-.845a15.04 15.04 0 0 1-.488 1.539l-1.008 3.01zm7.04 4.223h-1.97a.906.906 0 0 1-.545-.155.801.801 0 0 1-.298-.398l-.646-1.926H39.46l-.647 1.926a.85.85 0 0 1-.293.383.84.84 0 0 1-.534.17H36L40.243 8h2.602l4.243 11.047zm8.807-4.459c.092.208.181.42.267.638a11.935 11.935 0 0 1 .564-1.26l2.813-5.586a.933.933 0 0 1 .154-.224.504.504 0 0 1 .177-.118.608.608 0 0 1 .222-.038h2.23v11.04H60.08v-6.354c0-.308.015-.642.045-1.001l-2.904 5.679a.96.96 0 0 1-.365.402 1 1 0 0 1-.522.136h-.347a1 1 0 0 1-.522-.136.96.96 0 0 1-.365-.402l-2.919-5.686a9.627 9.627 0 0 1 .06 1.008v6.354H50V8h2.23a.61.61 0 0 1 .222.038.508.508 0 0 1 .177.118.933.933 0 0 1 .154.224l2.82 5.609c.101.192.198.392.29.6m12.649-1.168h1.324c.662 0 1.139-.159 1.43-.478.29-.318.436-.763.436-1.334 0-.253-.038-.483-.113-.69a1.408 1.408 0 0 0-.342-.534 1.54 1.54 0 0 0-.58-.345 2.544 2.544 0 0 0-.83-.122h-1.325v3.503zm0 1.934v3.692H66V8h3.866c.773 0 1.436.092 1.99.277.554.184 1.01.438 1.369.762.359.323.623.705.793 1.145.17.44.256.915.256 1.425 0 .551-.088 1.057-.263 1.516-.176.46-.444.855-.805 1.183-.36.329-.819.585-1.373.77-.554.185-1.21.277-1.967.277h-1.324zm-51.225-3.547l-5.41 9.074h-.98l.969-5.913-3 .004-.043.001a.491.491 0 0 1-.489-.493c0-.117.108-.315.108-.315l5.392-9.064.997.004-.994 5.922 3.016-.003.048-.001c.27 0 .49.22.49.493 0 .11-.044.208-.105.29zM12.895 0C5.773 0 0 5.82 0 12.998c0 7.179 5.773 12.998 12.895 12.998s12.895-5.82 12.895-12.998C25.79 5.819 20.017 0 12.895 0z"/><text font-family="Montserrat-Regular, Montserrat, -apple-system, BlinkMacSystemFont, Roboto, Helvetica" font-size="15" letter-spacing=".3"><tspan x="80" y="19">by Example</tspan></text></g></svg>
