<svg width="175" height="60" xmlns="http://www.w3.org/2000/svg">
  <g fill="#005af0" fill-rule="evenodd">
    <path d="M92.9377885 34.2654167h7.0715145l-2.3810097-7.015c-.153125-.445-.3340145-.97-.5409856-1.5741667-.2078125-.6033333-.413101-1.2566667-.6141827-1.96-.1884615.715-.3844952 1.3775-.5855769 1.9875-.2019231.6091667-.391226 1.1366667-.56875 1.5816667l-2.3810096 6.98zM109.569519 44.05875h-4.656009c-.521635 0-.950722-.1208333-1.288101-.3608333-.33738-.24-.572116-.5475-.701683-.9225l-1.527885-4.4658334h-9.8437497l-1.5287259 4.4658334c-.1177885.3275-.3491587.6241666-.6924279.8875-.3432692.2641666-.7639423.3958333-1.2620192.3958333h-4.6905048l10.021274-25.6166667h6.1477163L109.569519 44.05875zM130.561779 33.7364167c.219591.4808333.429086.9741666.631009 1.4783333.201082-.5166667.413943-1.0175.639424-1.5041667.224639-.4875.456009-.96.693269-1.4166666l6.644952-12.9541667c.118629-.2233333.240625-.3966667.364303-.5191667.124519-.1233333.264182-.2141666.417307-.2733333.153967-.0591667.328967-.0883333.524159-.0883333h5.26851v25.6h-5.294592V29.32475c0-.7141667.035337-1.4883333.10601-2.3208333l-6.857813 13.1691666c-.213702.4108334-.500601.7208334-.86238.9316667-.361778.2116667-.773197.3166667-1.235096.3166667h-.816947c-.461899 0-.873317-.105-1.235096-.3166667-.361779-.2108333-.648678-.5208333-.86238-.9316667l-6.893149-13.1866666c.047116.4108333.082452.8175.10601 1.2216666.023558.405.036178.7775.036178 1.1166667v14.7341667h-5.295433v-25.6H121.908534c.195192 0 .370192.0291666.524158.0883333.153967.0591667.29363.15.417308.2733333.124519.1225.245673.2958334.365144.5191667l6.66262 13.0058333c.23726.4466667.464423.91.684015 1.3908334M160.989904 31.0125833h3.127283c1.563222 0 2.688101-.3683333 3.375481-1.1075.68738-.7383333 1.030649-1.77 1.030649-3.0941666 0-.5858334-.088341-1.12-.265865-1.6-.178365-.4808334-.448438-.8941667-.808534-1.24-.361779-.345-.817788-.6125-1.36887-.8-.55024-.1875-1.205649-.2808334-1.962861-.2808334h-3.127283v8.1225zm0 4.4833334v8.5625h-6.00637V18.44175h9.133653c1.824039 0 3.390625.2141667 4.69976.6416667 1.308293.4275 2.386899 1.0166666 3.233293 1.7675.846395.75 1.472356 1.635 1.87452 2.6541666.403004 1.02.604086 2.1216667.604086 3.3058334 0 1.2775-.206971 2.4491666-.620913 3.5166666-.415625 1.0658334-1.049159 1.9808334-1.901443 2.7425-.853125.7616667-1.934254 1.3566667-3.243389 1.7841667-1.308293.4283333-2.857212.6416667-4.645914.6416667h-3.127283zM40.6737019 27.2526667L27.9676923 48.196h-2.3019231l2.2758414-13.6466667-7.0479568.01s-.0664663.0016667-.0984375.0016667c-.634375 0-1.1492788-.51-1.1492788-1.1383333 0-.27.2540865-.7266667.2540865-.7266667l12.6639423-20.9191667 2.340625.0091667-2.3330528 13.6683333L39.6556731 25.446s.0765625-.0016667.1127404-.0016667c.634375 0 1.1484375.5091667 1.1484375 1.1383334 0 .255-.1001202.4791666-.2439904.6691666l.0008413.0008334zM30.288125.00016667c-16.7276442 0-30.28846154 13.43166663-30.28846154 30.00000003 0 16.5683333 13.56081734 30 30.28846154 30 16.7284856 0 30.2884615-13.4316667 30.2884615-30 0-16.5683334-13.5599759-30.00000003-30.2884615-30.00000003z" />
  </g>
</svg>
