<?xml version="1.0" encoding="UTF-8" standalone="no"?>
<svg width="14px" height="14px" viewBox="0 0 14 14" version="1.1" xmlns="http://www.w3.org/2000/svg" xmlns:xlink="http://www.w3.org/1999/xlink">
    <!-- Generator: Sketch 3.6.1 (26313) - http://www.bohemiancoding.com/sketch -->
    <title>AMP Logo</title>
    <desc>Created with Sketch.</desc>
    <defs/>
    <g id="Page-1" stroke="none" stroke-width="1" fill="none" fill-rule="evenodd">
        <g id="AMP-Logo" fill="#0379C4">
            <path d="M8.657817,0.216062 L7.647297,5.589962 L10.085327,5.589962 C10.188787,5.589962 10.256477,5.698322 10.211117,5.791282 L6.230217,13.958532 C6.480467,13.985622 6.734567,13.999972 6.992097,13.999972 C10.853717,13.999972 13.984117,10.869572 13.984117,7.007952 C13.984117,3.720402 11.715067,0.963312 8.657817,0.216062" id="Fill-4"/>
            <path d="M6.425398,8.529948 L3.987158,8.529948 C3.883698,8.529948 3.815938,8.421588 3.861298,8.328628 L7.885808,0.072478 C7.591808,0.034958 7.292138,0.015708 6.987848,0.015848 C3.168228,0.018088 0.028028,3.136308 0.000168,6.955858 C-0.024192,10.303328 2.304078,13.111168 5.429718,13.824608 L6.425398,8.529948 Z" id="Fill-1"/>
        </g>
    </g>
</svg>